<svg width="64" height="64" viewBox="0 0 64 64" fill="none" xmlns="http://www.w3.org/2000/svg">
<path d="M57.4756 10.6667C57.2332 10.6417 56.989 10.6417 56.7467 10.6667H6.96889C6.64986 10.6716 6.33294 10.7194 6.02667 10.8089L31.7156 36.3911L57.4756 10.6667Z" fill="black"/>
<path d="M60.1066 13.1378L34.2222 38.9156C33.556 39.5778 32.6549 39.9495 31.7155 39.9495C30.7762 39.9495 29.875 39.5778 29.2089 38.9156L3.55554 13.3333C3.47667 13.6232 3.43486 13.9219 3.43109 14.2222V49.7778C3.43109 50.7208 3.80569 51.6251 4.47249 52.2919C5.13929 52.9587 6.04365 53.3333 6.98665 53.3333H56.7644C57.7074 53.3333 58.6118 52.9587 59.2786 52.2919C59.9454 51.6251 60.32 50.7208 60.32 49.7778V14.2222C60.3058 13.8518 60.2339 13.4859 60.1066 13.1378V13.1378ZM9.4222 49.7778H6.95109V47.2356L19.8755 34.4178L22.3822 36.9245L9.4222 49.7778ZM56.7289 49.7778H54.24L41.28 36.9245L43.7866 34.4178L56.7111 47.2356L56.7289 49.7778Z" fill="black"/>
</svg>
