<svg width="36" height="36" viewBox="0 0 36 36" fill="none" xmlns="http://www.w3.org/2000/svg">
<path d="M8.304 32.829C8.54665 32.9552 8.81909 33.013 9.09207 32.996C9.36506 32.9791 9.62829 32.8882 9.8535 32.733L29.3535 19.233C29.5528 19.0949 29.7156 18.9107 29.8281 18.6959C29.9405 18.4812 29.9993 18.2424 29.9993 18C29.9993 17.7576 29.9405 17.5188 29.8281 17.3041C29.7156 17.0893 29.5528 16.905 29.3535 16.767L9.8535 3.267C9.62846 3.11129 9.36511 3.02011 9.09197 3.00333C8.81883 2.98655 8.5463 3.04481 8.30389 3.17181C8.06149 3.2988 7.85844 3.48969 7.71675 3.72381C7.57505 3.95792 7.50009 4.22634 7.5 4.5V31.5C7.49995 31.7738 7.57485 32.0424 7.71658 32.2767C7.85831 32.5109 8.06145 32.702 8.304 32.829Z" fill="#C4C4C4"/>
</svg>
