<svg width="64" height="64" viewBox="0 0 64 64" fill="none" xmlns="http://www.w3.org/2000/svg">
<path d="M43.6266 37.3333C43.84 35.5733 44 33.8133 44 32C44 30.1867 43.84 28.4267 43.6266 26.6667H52.64C53.0666 28.3733 53.3333 30.16 53.3333 32C53.3333 33.84 53.0666 35.6267 52.64 37.3333H43.6266ZM38.9066 52.16C40.5066 49.2 41.7333 46 42.5866 42.6667H50.4533C47.8698 47.1154 43.771 50.4853 38.9066 52.16V52.16ZM38.24 37.3333H25.76C25.4933 35.5733 25.3333 33.8133 25.3333 32C25.3333 30.1867 25.4933 28.4 25.76 26.6667H38.24C38.48 28.4 38.6666 30.1867 38.6666 32C38.6666 33.8133 38.48 35.5733 38.24 37.3333ZM32 53.2267C29.7866 50.0267 28 46.48 26.9066 42.6667H37.0933C36 46.48 34.2133 50.0267 32 53.2267ZM21.3333 21.3333H13.5466C16.1036 16.8726 20.1994 13.4973 25.0666 11.84C23.4666 14.8 22.2666 18 21.3333 21.3333ZM13.5466 42.6667H21.3333C22.2666 46 23.4666 49.2 25.0666 52.16C20.2096 50.4844 16.1196 47.1139 13.5466 42.6667V42.6667ZM11.36 37.3333C10.9333 35.6267 10.6666 33.84 10.6666 32C10.6666 30.16 10.9333 28.3733 11.36 26.6667H20.3733C20.16 28.4267 20 30.1867 20 32C20 33.8133 20.16 35.5733 20.3733 37.3333H11.36ZM32 10.7467C34.2133 13.9467 36 17.52 37.0933 21.3333H26.9066C28 17.52 29.7866 13.9467 32 10.7467V10.7467ZM50.4533 21.3333H42.5866C41.752 18.0305 40.5162 14.8424 38.9066 11.84C43.8133 13.52 47.8933 16.9067 50.4533 21.3333ZM32 5.33333C17.2533 5.33333 5.33331 17.3333 5.33331 32C5.33331 39.0724 8.14283 45.8552 13.1438 50.8562C15.62 53.3324 18.5597 55.2967 21.7951 56.6368C25.0304 57.9769 28.4981 58.6667 32 58.6667C39.0724 58.6667 45.8552 55.8571 50.8562 50.8562C55.8571 45.8552 58.6666 39.0724 58.6666 32C58.6666 28.4981 57.9769 25.0305 56.6368 21.7951C55.2966 18.5598 53.3324 15.62 50.8562 13.1438C48.3799 10.6676 45.4402 8.70333 42.2049 7.36321C38.9695 6.02308 35.5019 5.33333 32 5.33333V5.33333Z" fill="black"/>
</svg>
